<?xml version="1.0" encoding="UTF-8" standalone="no"?>
<!-- Created with Inkscape (http://www.inkscape.org/) -->

<svg
   xmlns:dc="http://purl.org/dc/elements/1.1/"
   xmlns:cc="http://creativecommons.org/ns#"
   xmlns:rdf="http://www.w3.org/1999/02/22-rdf-syntax-ns#"
   xmlns:svg="http://www.w3.org/2000/svg"
   xmlns="http://www.w3.org/2000/svg"
   xmlns:sodipodi="http://sodipodi.sourceforge.net/DTD/sodipodi-0.dtd"
   xmlns:inkscape="http://www.inkscape.org/namespaces/inkscape"
   width="765"
   height="990"
   id="svg2"
   version="1.1"
   inkscape:version="0.48.2 r9819"
   sodipodi:docname="LTspice_plot_template.svg">
  <defs
     id="defs4">
    <clipPath
       id="clipPath14205"
       clipPathUnits="userSpaceOnUse">
      <path
         id="path14207"
         d="m 143.75,401.03 333.382,0 0,8.4281 -333.382,0 0,-8.4281 z"
         inkscape:connector-curvature="0" />
    </clipPath>
    <clipPath
       id="clipPath14189"
       clipPathUnits="userSpaceOnUse">
      <path
         id="path14191"
         d="m 143.75,401.03 333.382,0 0,8.4281 -333.382,0 0,-8.4281 z"
         inkscape:connector-curvature="0" />
    </clipPath>
    <clipPath
       id="clipPath14173"
       clipPathUnits="userSpaceOnUse">
      <path
         id="path14175"
         d="m 143.75,401.03 333.382,0 0,8.4281 -333.382,0 0,-8.4281 z"
         inkscape:connector-curvature="0" />
    </clipPath>
    <clipPath
       id="clipPath14157"
       clipPathUnits="userSpaceOnUse">
      <path
         id="path14159"
         d="m 143.75,401.03 333.382,0 0,8.4281 -333.382,0 0,-8.4281 z"
         inkscape:connector-curvature="0" />
    </clipPath>
    <clipPath
       id="clipPath14141"
       clipPathUnits="userSpaceOnUse">
      <path
         id="path14143"
         d="m 143.75,401.03 333.382,0 0,8.4281 -333.382,0 0,-8.4281 z"
         inkscape:connector-curvature="0" />
    </clipPath>
    <clipPath
       id="clipPath14125"
       clipPathUnits="userSpaceOnUse">
      <path
         id="path14127"
         d="m 143.75,401.03 333.382,0 0,8.4281 -333.382,0 0,-8.4281 z"
         inkscape:connector-curvature="0" />
    </clipPath>
    <clipPath
       id="clipPath14109"
       clipPathUnits="userSpaceOnUse">
      <path
         id="path14111"
         d="m 143.75,401.03 333.382,0 0,8.4281 -333.382,0 0,-8.4281 z"
         inkscape:connector-curvature="0" />
    </clipPath>
    <clipPath
       id="clipPath14093"
       clipPathUnits="userSpaceOnUse">
      <path
         id="path14095"
         d="m 143.75,401.03 333.382,0 0,8.4281 -333.382,0 0,-8.4281 z"
         inkscape:connector-curvature="0" />
    </clipPath>
    <clipPath
       id="clipPath17177"
       clipPathUnits="userSpaceOnUse">
      <path
         id="path17179"
         d="m 143.75,401.03 333.382,0 0,8.4281 -333.382,0 0,-8.4281 z" />
    </clipPath>
    <clipPath
       id="clipPath17161"
       clipPathUnits="userSpaceOnUse">
      <path
         id="path17163"
         d="m 143.75,401.03 333.382,0 0,8.4281 -333.382,0 0,-8.4281 z" />
    </clipPath>
    <clipPath
       id="clipPath17145"
       clipPathUnits="userSpaceOnUse">
      <path
         id="path17147"
         d="m 143.75,401.03 333.382,0 0,8.4281 -333.382,0 0,-8.4281 z" />
    </clipPath>
    <clipPath
       id="clipPath17129"
       clipPathUnits="userSpaceOnUse">
      <path
         id="path17131"
         d="m 143.75,401.03 333.382,0 0,8.4281 -333.382,0 0,-8.4281 z" />
    </clipPath>
    <clipPath
       id="clipPath17113"
       clipPathUnits="userSpaceOnUse">
      <path
         id="path17115"
         d="m 143.75,401.03 333.382,0 0,8.4281 -333.382,0 0,-8.4281 z" />
    </clipPath>
    <clipPath
       id="clipPath17097"
       clipPathUnits="userSpaceOnUse">
      <path
         id="path17099"
         d="m 143.75,401.03 333.382,0 0,8.4281 -333.382,0 0,-8.4281 z" />
    </clipPath>
    <clipPath
       id="clipPath17081"
       clipPathUnits="userSpaceOnUse">
      <path
         id="path17083"
         d="m 143.75,401.03 333.382,0 0,8.4281 -333.382,0 0,-8.4281 z" />
    </clipPath>
    <clipPath
       id="clipPath17065"
       clipPathUnits="userSpaceOnUse">
      <path
         id="path17067"
         d="m 143.75,401.03 333.382,0 0,8.4281 -333.382,0 0,-8.4281 z" />
    </clipPath>
  </defs>
  <sodipodi:namedview
     id="base"
     pagecolor="#ffffff"
     bordercolor="#666666"
     borderopacity="1.0"
     inkscape:pageopacity="0.0"
     inkscape:pageshadow="2"
     inkscape:zoom="1.7864149"
     inkscape:cx="289.95598"
     inkscape:cy="425.19684"
     inkscape:document-units="mm"
     inkscape:current-layer="layer1"
     showgrid="true"
     units="mm"
     showguides="true"
     inkscape:guide-bbox="true"
     inkscape:window-width="1600"
     inkscape:window-height="1174"
     inkscape:window-x="-4"
     inkscape:window-y="-4"
     inkscape:window-maximized="1">
    <inkscape:grid
       type="xygrid"
       id="grid25428"
       empspacing="5"
       visible="true"
       enabled="true"
       snapvisiblegridlinesonly="false"
       units="mm"
       spacingy="1mm"
       spacingx="1mm"
       dotted="true" />
    <sodipodi:guide
       orientation="1,0"
       position="35.433071,177.16535"
       id="guide25432" />
    <sodipodi:guide
       orientation="0,1"
       position="35.433071,177.16535"
       id="guide25434" />
    <sodipodi:guide
       orientation="1,0"
       position="673.22835,177.16535"
       id="guide25436" />
    <sodipodi:guide
       orientation="0,1"
       position="439.37008,673.22835"
       id="guide25438" />
  </sodipodi:namedview>
  <metadata
     id="metadata7">
    <rdf:RDF>
      <cc:Work
         rdf:about="">
        <dc:format>image/svg+xml</dc:format>
        <dc:type
           rdf:resource="http://purl.org/dc/dcmitype/StillImage" />
        <dc:title />
      </cc:Work>
    </rdf:RDF>
  </metadata>
  <g
     inkscape:groupmode="layer"
     id="layer2"
     inkscape:label="BoundingBox"
     sodipodi:insensitive="true">
    <rect
       style="fill:none;stroke:#ffffff;stroke-width:0.35433072;stroke-miterlimit:4;stroke-opacity:1;stroke-dasharray:none;stroke-dashoffset:0"
       id="rect25440"
       width="637.79529"
       height="496.06299"
       x="35.433071"
       y="316.77167" />
  </g>
  <g
     inkscape:label="Layer 1"
     inkscape:groupmode="layer"
     id="layer1"
     transform="translate(0,-62.362223)"
     style="display:inline" />
</svg>
